<svg id="Group_1007" data-name="Group 1007" xmlns="http://www.w3.org/2000/svg" xmlns:xlink="http://www.w3.org/1999/xlink" width="1998.823" height="1080" viewBox="0 0 1998.823 1080">
  <defs>
    <style>
      .cls-1 {
        fill: url(#radial-gradient);
      }

      .cls-10, .cls-12, .cls-2, .cls-8 {
        opacity: 0.3;
      }

      .cls-12, .cls-3 {
        fill: #f2f2f2;
      }

      .cls-4 {
        fill: #e6e6e6;
      }

      .cls-13, .cls-4 {
        opacity: 0.01;
      }

      .cls-5 {
        fill: #ffb6b6;
      }

      .cls-6 {
        fill: #2f2e41;
      }

      .cls-7 {
        opacity: 0.1;
      }

      .cls-8 {
        fill: #ccc;
      }

      .cls-10, .cls-9 {
        fill: #009688;
      }

      .cls-11 {
        fill: #a0616a;
      }

      .cls-13 {
        fill: #3f3d56;
      }

      .cls-14 {
        fill: #0c0f10;
      }

      .cls-15 {
        fill: #1d5d57;
      }

      .cls-16 {
        fill: #fff;
      }
    </style>
    <radialGradient id="radial-gradient" cx="0.316" cy="1.033" r="0.5" gradientUnits="objectBoundingBox">
      <stop offset="0" stop-color="#009688"/>
      <stop offset="0" stop-color="#22d9c8"/>
      <stop offset="0.005" stop-color="#18504a"/>
      <stop offset="0.834" stop-color="#152521"/>
      <stop offset="0.943" stop-color="#1c7e75"/>
      <stop offset="1" stop-color="#141311"/>
    </radialGradient>
  </defs>
  <rect id="Rectangle_2049" data-name="Rectangle 2049" class="cls-1" width="1920" height="1080"/>
  <g id="undraw_appreciated_xcjn" transform="translate(263.961 114.305)">
    <g id="Group_978" data-name="Group 978" class="cls-2" transform="translate(-234.667 562.782)">
      <path id="Path_1393" data-name="Path 1393" class="cls-3" d="M86.449,542.385c.853-1.438,4.542.1,5.221-1.2s-2.752-3.282-4.71-7.808c-.353-.816-2.579-5.96-.931-7.547,3.123-3.008,17.414,9.407,22.415,5.344,1.1-.891,1.864-2.671,5.186-5.561,1.322-1.15,2.121-1.669,2.894-1.476,1.1.274,1.184,1.743,2.361,4.63,1.765,4.331,2.808,4.069,3.837,7.524.763,2.565.589,4.056,1.487,4.347,1.271.411,2.441-2.309,4.052-2.066,1.644.249,2.637,3.416,2.951,5.788.589,4.451-1.045,7.387-1.951,10.475-.984,3.356-1.569,8.46.7,15.684l22.5,63.4c-4.968-13.01-19.352-48.672-25.4-61.925-1.745-3.826-3.671-7.706-7.627-9.238-3.809-1.474-9.039-.594-15.707-2.2-.779-.188-2.94-.737-3.212-2.009-.225-1.051,1.046-1.637.851-2.622-.262-1.32-2.762-1.336-5.834-2.859a18.178,18.178,0,0,1-4.676-3.45c-.35-.331-5.551-5.315-4.415-7.229h0Z" transform="translate(-85.427 -496.782)"/>
      <path id="Path_1394" data-name="Path 1394" class="cls-3" d="M71.528,575.3c.952,0,1.261,2.259,2.1,2.215s.817-2.3,2.473-4.565c.3-.409,2.181-2.985,3.436-2.635,2.378.665.408,11.261,3.845,12.543a38.051,38.051,0,0,1,4.226.941c.946.317,1.431.559,1.559.995.182.618-.514,1.084-1.591,2.495-1.616,2.116-1.187,2.552-2.586,4.054-1.039,1.115-1.821,1.459-1.7,1.984.165.742,1.838.532,2.183,1.392.352.878-.916,2.28-1.989,3.118-2.014,1.573-3.927,1.618-5.7,2.065a14.98,14.98,0,0,0-7.495,4.871L45.651,634.107c4.952-6.192,18.305-23.542,23.066-30.332,1.374-1.96,2.723-4.025,2.333-6.409-.375-2.295-2.316-4.608-3.452-8.344-.133-.436-.486-1.656.059-2.156.451-.414,1.106.041,1.532-.339.572-.51-.141-1.741-.28-3.688a10.35,10.35,0,0,1,.344-3.291c.062-.267,1.007-4.258,2.274-4.253h0Z" transform="translate(18.025 -496.315)"/>
      <path id="Path_1395" data-name="Path 1395" class="cls-3" d="M105.351,579.688l.573-5.119-.262-.388a9.472,9.472,0,0,1-1.838-5.211c0-.265.011-.529.023-.8a8.008,8.008,0,0,0-.581-3.943c-.388-.863-1.478-2.86-3.117-2.613a1.857,1.857,0,0,0-1.028.5l-.116-.183a5.631,5.631,0,0,0-1.3-1.434,6.578,6.578,0,0,1-1.093-1.1c-.213-.264-.378-.5-.518-.692a2.4,2.4,0,0,0-1.954-1.283,2.566,2.566,0,0,0-1.952,1.483,12.341,12.341,0,0,0-1.133,2.24,3.873,3.873,0,0,1-.192.44c-.336.494-3.069.032-4.1-.136-2.312-.386-4.314-.719-5.138.739-.591,1.043-.152,2.422,1.344,4.21a8.355,8.355,0,0,0,1.4,1.31,1.714,1.714,0,0,0-.823,1.075h0c-.311,1.241.755,2.484,3.169,3.7a8.525,8.525,0,0,0,2.537.9,9.95,9.95,0,0,0,1.423.126,1.685,1.685,0,0,0,.209.759,2.533,2.533,0,0,0,2.636,1.06,20.676,20.676,0,0,0,3.731-.6,9.05,9.05,0,0,1,2.356-.351c1.164.094,2.062,1.026,3.115,2.235l2.629,3.073h0Z" transform="translate(-34.788 -496.445)"/>
      <path id="Path_1396" data-name="Path 1396" class="cls-3" d="M60.392,549.48l4.807,1.853.442-.155a9.472,9.472,0,0,1,5.507-.456c.256.066.509.145.766.225a8.007,8.007,0,0,0,3.961.438c.933-.157,3.141-.7,3.318-2.352a1.857,1.857,0,0,0-.225-1.122l.206-.066a5.634,5.634,0,0,0,1.718-.9,6.584,6.584,0,0,1,1.346-.777c.31-.139.577-.24.8-.325a2.4,2.4,0,0,0,1.737-1.565,2.566,2.566,0,0,0-.94-2.264,12.342,12.342,0,0,0-1.879-1.664,3.835,3.835,0,0,1-.377-.3c-.393-.451.747-2.977,1.171-3.93.96-2.139,1.79-3.99.588-5.157-.859-.836-2.3-.761-4.413.232a8.366,8.366,0,0,0-1.623,1.023,1.713,1.713,0,0,0-.831-1.069h0c-1.121-.616-2.595.1-4.383,2.127a8.521,8.521,0,0,0-1.519,2.225,9.97,9.97,0,0,0-.483,1.344,1.686,1.686,0,0,0-.787.01c-.861.213-1.443.972-1.694,2.281a20.669,20.669,0,0,0-.365,3.762,9.048,9.048,0,0,1-.258,2.368c-.386,1.1-1.515,1.734-2.952,2.446l-3.639,1.764h0Z" transform="translate(7.51 -496.718)"/>
      <path id="Path_1397" data-name="Path 1397" class="cls-3" d="M105.351,534.581l.573-5.119-.262-.388a9.471,9.471,0,0,1-1.838-5.211c0-.264.011-.529.023-.8a8.008,8.008,0,0,0-.581-3.943c-.388-.863-1.478-2.86-3.117-2.613a1.856,1.856,0,0,0-1.028.5l-.116-.183a5.635,5.635,0,0,0-1.3-1.434,6.58,6.58,0,0,1-1.093-1.1c-.213-.264-.378-.5-.518-.692a2.4,2.4,0,0,0-1.954-1.283,2.566,2.566,0,0,0-1.952,1.483,12.339,12.339,0,0,0-1.133,2.24,3.883,3.883,0,0,1-.192.44c-.336.494-3.069.032-4.1-.136-2.312-.386-4.314-.719-5.138.739-.591,1.043-.152,2.422,1.344,4.21a8.362,8.362,0,0,0,1.4,1.31,1.713,1.713,0,0,0-.823,1.075h0c-.311,1.241.755,2.484,3.169,3.7a8.521,8.521,0,0,0,2.537.9,9.967,9.967,0,0,0,1.423.126,1.685,1.685,0,0,0,.209.759,2.533,2.533,0,0,0,2.636,1.06,20.693,20.693,0,0,0,3.731-.6,9.043,9.043,0,0,1,2.356-.351c1.164.094,2.062,1.026,3.115,2.235l2.629,3.073h0Z" transform="translate(-34.788 -496.901)"/>
      <path id="Path_1398" data-name="Path 1398" class="cls-3" d="M72.869,633.947l1.073-.672.26-1.238-.26,1.238,1.251.143c.02-.116.088-.383.19-.8a179.025,179.025,0,0,0,3.691-20.225,206.212,206.212,0,0,0,1.672-23.4c.116-7.885-.257-13.855-.556-18.653-.226-3.619-.5-7.065-.77-10.422-.717-8.968-1.393-17.44-.89-26.818A24.848,24.848,0,0,1,81.421,522a23.544,23.544,0,0,1,6.048-7.094l-1.577-1.983a26.121,26.121,0,0,0-6.69,7.861A27.213,27.213,0,0,0,76,532.961c-.512,9.544.172,18.1.9,27.152.267,3.345.541,6.776.766,10.38.3,4.753.666,10.671.551,18.455a203.7,203.7,0,0,1-1.65,23.118,176.19,176.19,0,0,1-3.641,19.948c-.294,1.2-.356,1.456-.054,1.933h0Z" transform="translate(-7.544 -496.894)"/>
      <path id="Path_1399" data-name="Path 1399" class="cls-3" d="M70.088,519.093c.1,0,.209,0,.315-.01,2.156-.116,4.152-1.407,5.934-3.834.836-1.142,1.263-2.445,2.116-5.043a31.619,31.619,0,0,0,1.166-5.228c.256-1.827.224-2.591-.138-3.265a3.862,3.862,0,0,0-1.783-1.629,1.431,1.431,0,0,0-.1-.747c-.431-1.056-1.578-.917-2.2-.85a6.22,6.22,0,0,1-1.128.069,3.181,3.181,0,0,1-1.563-.526,7.038,7.038,0,0,0-2.117-.833,7.547,7.547,0,0,0-3.982.316c-2.738.912-4.087,3.041-5.65,5.505a19.323,19.323,0,0,0-2.086,4.761,5.661,5.661,0,0,0-.284,3.159c.311,1.209,1.047,1.9,2.914,3.429a33.934,33.934,0,0,0,3.77,2.887c1.957,1.13,3.185,1.839,4.817,1.839h0Z" transform="translate(14.478 -497.055)"/>
    </g>
    <path id="Path_1400" data-name="Path 1400" class="cls-4" d="M0,632.6H0c0,.469.176.849.392.849H272.257v-1.7H.392C.176,631.756,0,632.136,0,632.6Z" transform="translate(40.076 -11.225)"/>
    <g id="Group_981" data-name="Group 981" transform="translate(-106.961 47)">
      <g id="Group_979" data-name="Group 979" transform="translate(127.193 176.604)">
        <path id="uuid-506e980e-f0d6-40ec-b8bf-dc46994aec97-82" class="cls-5" d="M273.066,182.352c5.978-6.985,14.428-9.562,18.873-5.757s3.2,12.551-2.781,19.537a23.009,23.009,0,0,1-8.729,6.473l-25.7,29.275-13.481-12.355,26.771-27.548A23.011,23.011,0,0,1,273.066,182.352Z" transform="translate(-79.506 -174.838)"/>
        <path id="Path_1401" data-name="Path 1401" class="cls-6" d="M263.742,217.818s-5.622,25.733,16.692,33.939,80.139,39.711,84.419,38.268,18.284,5.6,34.811-9.432,56.457-60.37,56.457-60.37L439.7,197.917,377.86,240.635a53.556,53.556,0,0,0-7.184-1c-5.862-.608-1.277,3.09-10.446-4.305s-67.69-33.9-67.69-33.9-17.173-8.51-28.8,16.388Z" transform="translate(-263.111 -174.604)"/>
      </g>
      <path id="Path_1402" data-name="Path 1402" class="cls-5" d="M284.2,573.01,275.111,602.3l25.253,17.172,18.182-16.162S311.474,578.061,314.5,572Z" transform="translate(-10.463 5.781)"/>
      <path id="Path_1403" data-name="Path 1403" class="cls-5" d="M420.594,162l-14.484,31.95,42.377,26.342,2.41-38.09Z" transform="translate(-275.139 1.637)"/>
      <path id="Path_1404" data-name="Path 1404" class="cls-7" d="M420.594,162l-14.484,31.95,42.377,26.342,2.41-38.09Z" transform="translate(-275.139 1.637)"/>
      <path id="Path_1405" data-name="Path 1405" class="cls-8" d="M302.767,270.212c14.124-8.131,27.558,4.856,40.075,45.895,0,0,52.874,74.886,52.891,106.136H546.993l33.46,47.461,2.57.411s-16.778,4.011-43.114,8.429v157.77h-9.033v-156.3c-7.885,1.241-16.447,2.483-25.533,3.648V636.314h-9.033V484.77a719.894,719.894,0,0,1-83.1,5.217c-1.856,0-3.652-.036-5.419-.088V636.314h-9.033V489.391c-14.577-1.249-25.76-4.394-34.324-8.609V636.314H355.4V475.3c-22.936-17.127-18.065-43.12-18.065-43.12,6.894-41.361-26.2-103.767-42.256-131C288.782,290.488,292.017,276.4,302.767,270.212Z" transform="translate(-291.883 2.708)"/>
      <circle id="Ellipse_277" data-name="Ellipse 277" class="cls-5" cx="30.772" cy="30.772" r="30.772" transform="translate(131.338 130.576)"/>
      <path id="Path_1406" data-name="Path 1406" class="cls-9" d="M425.045,213.293,381.611,184l7.071,247.476s35.859-62.122,63.132-65.152c0,0-3.03-7.071-5.051-11.111s-5.051-24.243-5.051-24.243L427.57,221.879Z" transform="translate(-251.307 1.86)"/>
      <path id="Path_1407" data-name="Path 1407" class="cls-6" d="M468.247,469.355,506.631,334s-6.061-109.091-46.97-150l-9.6,14.647s-9.489,1.408-7.775,7.775-37.68,240.712-37.68,240.712h40.83S449.055,469.355,468.247,469.355Z" transform="translate(-329.358 1.86)"/>
      <path id="Path_1408" data-name="Path 1408" class="cls-6" d="M372,213.04V209s18.687,1.515,19.7,12.626,9.091,54.546,1.01,80.809l10.1,16.162,7.071,38.384-22.222,6.061-12.121-93.212S367.452,220.616,372,213.04Z" transform="translate(-198.259 2.112)"/>
      <path id="Path_1409" data-name="Path 1409" class="cls-6" d="M252.034,404.026s-17.172,49.5,19.192,50.505,93.013,1.01,93.013,1.01l28.2,15.152-8.081,110.1,56.566,1.01s18.182-135.354,2.02-151.516-62.627-33.333-62.627-33.333l-53.536-27.273-15.056-18.277Z" transform="translate(-114.155 3.551)"/>
      <path id="Path_1410" data-name="Path 1410" class="cls-6" d="M398.409,178.071c-2.146-.762-22.232-24.3-5.515-39.9,0,0,6.514-19.052,32.492-17.054s32.973,16.207,32.973,23.591-6.879,15.685-6.879,15.685,4.881-20.292-6.11-19.292-7.993,5-15.987,3-15.987,1-15.987,1l-7.993,3v12.191s-3.485-2.8-3.741,0S398.409,178.071,398.409,178.071Z" transform="translate(-262.59 1.223)"/>
      <path id="Path_1411" data-name="Path 1411" class="cls-5" d="M233.611,424.614l1.01,31.313,39.394-7.071S257.1,421.019,259.5,413.22Z" transform="translate(75.987 4.176)"/>
      <path id="Path_1412" data-name="Path 1412" class="cls-6" d="M175.557,448.568s-7.071,0-7.071,4.04-11.111,35.354,10.1,36.364,20.2-3.03,20.2-3.03,59.6,27.273,80.808-13.131c0,0,5.051-10.1-7.071-12.121s-60.606-18.933-60.606-18.933S183.638,452.609,175.557,448.568Z" transform="translate(138.081 4.464)"/>
      <path id="Path_1413" data-name="Path 1413" class="cls-6" d="M243.658,602.079s-7.071-8.566-8.081-7.818-23.232,26-8.081,33.071,23.232,10.1,23.232,10.1l4.04-6.061s30.3,29.293,76.768,9.091c0,0,4.04-9.091-5.051-11.111s-47.475-32.8-47.475-32.8-16.162,11.588-24.243,9.568S243.658,602.079,243.658,602.079Z" transform="translate(29.07 6.005)"/>
      <path id="Path_1414" data-name="Path 1414" class="cls-6" d="M230.111,361.98S324.556,314,332.636,314s23.527,3.325,26.915,18.834,23.59,90.257,23.59,90.257l-49.5,12.121-19.192-53.536L283.141,409.96l-53.031-31.624Z" transform="translate(-29.605 3.173)"/>
      <g id="Group_980" data-name="Group 980" transform="translate(91.464 201.995)">
        <path id="uuid-724716db-9301-4721-8891-c606ecc0c822-83" class="cls-5" d="M374.413,343.221c9.1,1.335,15.781,7.111,14.93,12.9s-8.913,9.4-18.013,8.061a23.009,23.009,0,0,1-10.129-3.935l-38.47-6.144L326,336.112l37.578,7.967A23.01,23.01,0,0,1,374.413,343.221Z" transform="translate(-220.899 -198.598)"/>
        <path id="Path_1415" data-name="Path 1415" class="cls-6" d="M380.247,200.388s-24.77,8.96-19.818,32.214,9.116,88.973,12.619,91.825,5,18.457,26.536,24.426,83.321,32.39,83.321,32.39l7.97-42.587-69.1-29.551a53.58,53.58,0,0,0-2.983-6.612c-2.61-5.284-3.3.566-1.925-11.133s-7.4-75.342-7.4-75.342-1.953-19.066-29.216-15.63Z" transform="translate(-359.774 -199.974)"/>
      </g>
      <path id="Path_1416" data-name="Path 1416" class="cls-10" d="M247.993,14.077h0c.125.121.24.249.363.371a49.791,49.791,0,0,1,69.758-.378h0A49.792,49.792,0,0,1,319.6,84l.012.012-.466.48h0L250.214,155.46,178.765,86.067l.2-.2c-.12-.114-.245-.22-.364-.336h0A49.8,49.8,0,0,1,177.572,15.1h0a49.8,49.8,0,0,1,70.421-1.028Z" transform="translate(87.614 0)"/>
    </g>
  </g>
  <g id="undraw_appreciation_re_8nbx" transform="translate(992 160.145)">
    <path id="Path_1450" data-name="Path 1450" class="cls-11" d="M193.835,303.414,137,309.592l-27.183-18.534L94.079,309.592l7.554,39.107,8.649,30.89,52.445-26.635,42.229-3.823Z" transform="translate(86.455 267.472)"/>
    <path id="Path_1451" data-name="Path 1451" class="cls-6" d="M441.646,271.655,304.5,269.184l-166.8,70.428,22.24,48.188,150.741-42.01L544.2,412.512,512.074,254.357Z" transform="translate(126.535 233.745)"/>
    <path id="Path_1452" data-name="Path 1452" class="cls-6" d="M112.575,336.354l27.26-2.122-34.673-73.249S89.1,255.311,86.628,272.974s18.607,137.258,24.784,137.258,26.906-12.093,26.906-12.093L107.633,340.06l4.942-3.707Z" transform="translate(79.423 239.037)"/>
    <path id="Path_1453" data-name="Path 1453" class="cls-12" d="M481.847,315.169c-2.744.3-5.737.738-8.921,1.387-13.5,2.749-13.78,11.916-13.662,14.018l-.092-.057a22.248,22.248,0,0,0-2.721,6.461l-.618-28.1a20.859,20.859,0,0,0,1.067-2.747c1.011,3.112,2.667,6.052,4.1,5.857,1.857-.253,2.666-5.717,2.32-9.6,2.361,3.041,6.335,6.293,7.834,5.29,1.2-.8.488-4.1-.82-7.1,2.725,1.642,5.743,2.721,6.68,1.678,1.278-1.423-1.784-6.277-4.609-8.986,3.78.353,8.588-.25,8.9-1.97.26-1.418-2.6-3.206-5.664-4.358,3.076-.811,5.953-2.224,5.857-3.623-.113-1.661-4.384-2.774-8.069-2.943,2.779-2.174,5.333-5.18,4.552-6.539-.718-1.25-4.058-.766-7.139.335,1.823-2.607,3.105-5.544,2.129-6.55-1.216-1.252-5.533.909-8.478,3.3.573-3.722.284-8.42-1.386-8.846-1.4-.356-3.376,2.377-4.733,5.355-.6-3.124-1.814-6.091-3.215-6.091-2,0-3.615,6.019-3.615,9.94,0,.222.006.43.016.63-.2-.232-.43-.475-.692-.729-2.813-2.732-8.259-5.764-9.649-4.332-.976,1.005.306,3.943,2.129,6.55-3.081-1.1-6.421-1.585-7.139-.335-.965,1.679,3.159,5.871,6.51,7.9-.2-.024-.413-.045-.638-.06-3.912-.267-10.027.938-10.163,2.93-.1,1.4,2.781,2.811,5.858,3.623-3.063,1.151-5.924,2.94-5.664,4.358.315,1.721,5.123,2.323,8.9,1.97-2.824,2.71-5.886,7.564-4.608,8.986.937,1.043,3.955-.036,6.68-1.678-1.308,3-2.018,6.3-.82,7.1,1.583,1.059,5.925-2.627,8.214-5.8-.233,3.88.7,9.21,2.537,9.42.77.088,1.587-.734,2.323-2l-2.086,30.2c-.488,3.517,2.632,5.812,2.911,7.261l.45,20.451a22.074,22.074,0,0,0-2.114-4.426l-.092.057c.118-2.1-.162-11.269-13.662-14.017-3.184-.648-6.177-1.091-8.921-1.387a2.913,2.913,0,0,0-1.576,5.517c4.237,2.074,8.223,4.687,10.3,7.781,5.312,7.911,12.651,3.338,13.694,2.628a21.756,21.756,0,0,1,2.412,5.755l.239,10.86c-.059.257-.1.4-.1.411l.112.033.578,26.283,5.365-.043-1.919-26.866a25.789,25.789,0,0,0,0-11.514L459.007,347.7h0c0-.016.109.554,0,0l-2.5-8.294a22.078,22.078,0,0,1,2.924-8.308c1.043.71,8.382,5.283,13.694-2.628,2.078-3.094,6.064-5.707,10.3-7.781a2.913,2.913,0,0,0-1.576-5.517Zm-24.508,62.185-.1-4.6A24.5,24.5,0,0,1,457.339,377.354Z" transform="translate(415.871 242.041)"/>
    <path id="Path_1454" data-name="Path 1454" class="cls-13" d="M0,338.2a2.277,2.277,0,0,0,2.284,2.284H1004.539a2.284,2.284,0,1,0,0-4.567H2.284A2.277,2.277,0,0,0,0,338.2Z" transform="translate(0 308.696)"/>
    <path id="Path_1455" data-name="Path 1455" class="cls-6" d="M449.051,129.117c-10.252-3.878-9.638-9.751-23.476-17.3-5.934-3.236-10.671-5.82-17.3-6.178-11.693-.632-20.606,6.13-27.183,11.12a67.928,67.928,0,0,0-17.3,19.769c-4.448,7.3-6.5,13.392-8.649,19.769-3.161,9.38-4.371,16.4-6.178,27.183-2.7,16.089-4.046,24.133-2.471,30.89,2.92,12.528,9.346,13.4,8.649,21-1.177,12.85-19.85,14.043-22.241,27.183-1.982,10.9,8.329,24.017,19.769,28.418,6.943,2.671,13.337,1.759,30.89-3.707,46.563-14.5,54.034-24.42,69.193-19.769,8.621,2.645,13.336,8.043,25.947,8.649,8.065.388,17.8-1.259,18.534-4.942.939-4.685-13.721-7.433-14.827-16.063-1.161-9.055,14.123-12.723,14.827-23.476.69-10.535-13.652-11.994-21-28.418-3.7-8.261-3.289-19.511-2.471-42.01.631-17.362,2.314-24.079-2.471-28.418-5.384-4.882-10.839.606-22.24-3.707Z" transform="translate(305.703 97.042)"/>
    <path id="Path_1456" data-name="Path 1456" class="cls-11" d="M346.553,200l13.591-45.717,39.539-1.236,16.063,56.837Z" transform="translate(318.47 140.641)"/>
    <path id="Path_1457" data-name="Path 1457" class="cls-7" d="M346.553,200l13.591-45.717,39.539-1.236,16.063,56.837Z" transform="translate(318.47 140.641)"/>
    <path id="Path_1458" data-name="Path 1458" class="cls-14" d="M433.21,175.378l-64.25-2.471-19.921,40.96L318.3,395.311l161.243,36.45s9.885-202.635-12.356-231.054S433.21,175.378,433.21,175.378Z" transform="translate(292.508 158.895)"/>
    <circle id="Ellipse_282" data-name="Ellipse 282" class="cls-11" cx="47.782" cy="47.782" r="47.782" transform="translate(646.065 220.829)"/>
    <path id="Path_1459" data-name="Path 1459" class="cls-6" d="M407.75,222.017c2.4-2.485,12.712-5.157,9.583-11.4a6.2,6.2,0,0,0-5.844-3.181c-4.1.513-5.191,6.877-7.008,6.635-2.4-.32-3.08-11.755-3.371-24.04-.474-19.967.558-22.057-2-25.122-2.353-2.821-4.061-2.05-30.384-6.091-8.887-1.364-11.783-1.926-16.1-.664-8.2,2.4-11.279,8.4-14.515,6.989-3.116-1.355-3.864-8.481-2.081-13.933,2.547-7.789,10.109-11.708,15.388-14.351,13.478-6.748,23.245-4.553,24.767-9.506,1.141-3.711-4.183-5.463-4.68-13-.533-8.079,5.07-13.926,5.427-14.287a19.525,19.525,0,0,1,9.316-5.117c2.46-.636,5.344-1.382,8.734-.209a12.124,12.124,0,0,1,6.78,5.781c1.834,3.846.185,6.994,1.581,7.653,1.585.748,3.611-3.354,9.316-5.117a11.974,11.974,0,0,1,5.053-.645c4.531.485,7.385,3.806,8.152,4.7,1.992,2.319,2.625,4.6,3.89,9.171a32.244,32.244,0,0,1,1.436,8.88,19.89,19.89,0,0,1-.873,7.362s-1.492,4.161-10.044,11.252h0s3.581-3.553,5.344-3.1c3.018.776,14.732,4.729,20.486,16.115,2.6,5.149,4.3,4.354,6.344,9.462.482,1.2,4.011,10.4.126,19.923-2.971,7.285-6.885,6.441-9.108,13.851-1.062,3.542-.158,3.7-1.6,13.5-.829,5.63-8.144,1.15-9.411,3.553-.856,1.624,12.014,49.33,5.023,55.937-6.849,6.473-36.837-43.653-29.735-50.995Z" transform="translate(307.932 86.494)"/>
    <g id="Group_986" data-name="Group 986" transform="translate(503.883 169.187)">
      <path id="uuid-d56d3225-8ff5-4cfc-a2e4-a63effe3e01d-138" class="cls-11" d="M296.243,111.161c-2.678-14.3-12.229-24.515-21.332-22.809s-14.308,14.682-11.627,28.99a36.417,36.417,0,0,0,6.855,15.775l12.113,60.459,23.9-4.851-10.586-60.373a36.42,36.42,0,0,0,.68-17.191Z" transform="translate(-262.581 -88.166)"/>
      <path id="Path_1460" data-name="Path 1460" class="cls-14" d="M473.452,248.27,342.236,222.412,305.36,111.5l-41.321,9.774,41.453,163.841,148.529,19.543Z" transform="translate(-261.24 -66.719)"/>
    </g>
    <path id="Path_1461" data-name="Path 1461" class="cls-10" d="M311.123,14.52h0c-.129.125-.247.257-.375.383a51.359,51.359,0,0,0-71.954-.39h0a51.36,51.36,0,0,0-1.529,72.132l-.013.012.481.5h0l71.1,73.2,73.7-71.579-.2-.211c.124-.118.253-.227.376-.347h0a51.369,51.369,0,0,0,1.06-72.639h0a51.369,51.369,0,0,0-72.639-1.06Z" transform="translate(205.132 0)"/>
    <path id="Path_1462" data-name="Path 1462" class="cls-15" d="M355.721,209.572h0c-.237.23-.456.473-.69.7a94.591,94.591,0,0,0-132.523-.719h0a94.594,94.594,0,0,0-2.815,132.849l-.023.023.885.912h0L351.5,478.167,487.237,346.336l-.378-.389c.228-.217.465-.419.692-.639h0A94.609,94.609,0,0,0,489.5,211.525h0a94.609,94.609,0,0,0-133.783-1.953Z" transform="translate(178.118 168.014)"/>
    <path id="Path_1463" data-name="Path 1463" class="cls-6" d="M513.255,369.2s24.712,58.072-2.471,71.664-101.639,24.712-120.012,0S366.22,302.477,366.22,302.477l-59.308,82.784-33.361-21s39.539-139.621,72.9-147.034,122.323,81.548,122.323,81.548L513.255,369.2Z" transform="translate(251.384 199.216)"/>
    <path id="Path_1464" data-name="Path 1464" class="cls-11" d="M310.863,289.771l-25.947,25.947-35.832,18.534,3.707,32.125,67.957-7.414,8.649-17.3-2.471-14.827,4.942-23.476Z" transform="translate(228.9 266.289)"/>
    <path id="Path_1465" data-name="Path 1465" class="cls-6" d="M290.1,336.307l-2.122-27.26L214.73,343.72s-5.672,16.063,11.991,18.534,135.043,2.471,135.043-3.707,3.211-37.807,3.211-37.807l-71.168,20.509Z" transform="translate(196.532 284.003)"/>
    <g id="Group_987" data-name="Group 987" transform="translate(516.015 363.308)">
      <path id="uuid-a721eaf6-2355-46f2-b485-145c924aea51-139" class="cls-11" d="M293.518,276.431c-14.481,1.436-25.478,10.072-24.562,19.287s13.4,15.519,27.881,14.081a36.417,36.417,0,0,0,16.306-5.47l61.278-6.859-2.774-24.225-61.06,5.346A36.419,36.419,0,0,0,293.518,276.431Z" transform="translate(-268.903 -112.207)"/>
      <path id="Path_1466" data-name="Path 1466" class="cls-14" d="M444.253,189.325l-37.067,128.5L293.512,345.009l6.178,42.01,166.8-27.183,32.268-146.293Z" transform="translate(-246.288 -189.325)"/>
    </g>
    <g id="Group_989" data-name="Group 989" class="cls-2" transform="translate(-25.673 -280.145)">
      <circle id="Ellipse_289" data-name="Ellipse 289" class="cls-9" cx="41.369" cy="41.369" r="41.369" transform="translate(500.319 313.613)"/>
      <path id="Path_1494" data-name="Path 1494" class="cls-16" d="M541.684,382.247l16.747-23.585-16.747,9.888h0l-16.737-9.888,16.736,23.585h0Z"/>
      <path id="Path_1495" data-name="Path 1495" class="cls-16" d="M541.683,365.381h0l16.737-9.893-16.737-27.771h0l-16.736,27.771Z"/>
    </g>
  </g>
</svg>
